<mxfile host="app.diagrams.net" modified="2021-03-28T18:47:22.612Z" agent="5.0 (Windows)" etag="NqsoJs1S6gVgquU-hYhB" version="14.5.1" type="github">
  <diagram id="nrOXRx42Pig170Ykarbg" name="Page-1">
    <mxGraphModel dx="1673" dy="844" grid="1" gridSize="10" guides="1" tooltips="1" connect="1" arrows="1" fold="1" page="1" pageScale="1" pageWidth="827" pageHeight="1169" math="0" shadow="0">
      <root>
        <mxCell id="0" />
        <mxCell id="1" parent="0" />
        <mxCell id="KMgSqW_ez-yug-4m1HiJ-22" value="Lobby List" style="text;html=1;align=center;verticalAlign=middle;resizable=0;points=[];autosize=1;" parent="1" vertex="1">
          <mxGeometry x="203" y="1030" width="70" height="20" as="geometry" />
        </mxCell>
        <mxCell id="KMgSqW_ez-yug-4m1HiJ-43" value="" style="rounded=0;whiteSpace=wrap;html=1;fillColor=#CCCCFF;" parent="1" vertex="1">
          <mxGeometry x="120" y="1790" width="640" height="370" as="geometry" />
        </mxCell>
        <mxCell id="KMgSqW_ez-yug-4m1HiJ-44" value="" style="rounded=0;whiteSpace=wrap;html=1;" parent="1" vertex="1">
          <mxGeometry x="355" y="1850" width="160" height="190" as="geometry" />
        </mxCell>
        <mxCell id="KMgSqW_ez-yug-4m1HiJ-45" value="Add all" style="rounded=1;whiteSpace=wrap;html=1;fillColor=#66FFFF;" parent="1" vertex="1">
          <mxGeometry x="350" y="2070" width="170" height="30" as="geometry" />
        </mxCell>
        <mxCell id="KMgSqW_ez-yug-4m1HiJ-47" value="Friend Requests" style="text;html=1;align=center;verticalAlign=middle;resizable=0;points=[];autosize=1;" parent="1" vertex="1">
          <mxGeometry x="380" y="1870" width="100" height="20" as="geometry" />
        </mxCell>
        <mxCell id="KMgSqW_ez-yug-4m1HiJ-48" value="Friend Requests Screen" style="text;html=1;align=center;verticalAlign=middle;resizable=0;points=[];autosize=1;" parent="1" vertex="1">
          <mxGeometry x="360" y="1800" width="140" height="20" as="geometry" />
        </mxCell>
        <mxCell id="KMgSqW_ez-yug-4m1HiJ-49" value="" style="rounded=0;whiteSpace=wrap;html=1;" parent="1" vertex="1">
          <mxGeometry x="355" y="1900" width="160" height="30" as="geometry" />
        </mxCell>
        <mxCell id="KMgSqW_ez-yug-4m1HiJ-50" value="Friend 1" style="text;html=1;align=center;verticalAlign=middle;resizable=0;points=[];autosize=1;" parent="1" vertex="1">
          <mxGeometry x="359" y="1905" width="60" height="20" as="geometry" />
        </mxCell>
        <mxCell id="KMgSqW_ez-yug-4m1HiJ-51" value="" style="verticalLabelPosition=bottom;verticalAlign=top;html=1;shape=mxgraph.basic.tick;fillColor=#25B825;" parent="1" vertex="1">
          <mxGeometry x="460" y="1905" width="20" height="20" as="geometry" />
        </mxCell>
        <mxCell id="KMgSqW_ez-yug-4m1HiJ-52" value="" style="verticalLabelPosition=bottom;verticalAlign=top;html=1;shape=mxgraph.basic.x;fillColor=#FF3333;" parent="1" vertex="1">
          <mxGeometry x="485" y="1905" width="20" height="20" as="geometry" />
        </mxCell>
        <mxCell id="KMgSqW_ez-yug-4m1HiJ-112" value="" style="group" parent="1" vertex="1" connectable="0">
          <mxGeometry x="120" y="3350" width="640" height="370" as="geometry" />
        </mxCell>
        <mxCell id="KMgSqW_ez-yug-4m1HiJ-68" value="" style="rounded=0;whiteSpace=wrap;html=1;fillColor=#CCCCFF;" parent="KMgSqW_ez-yug-4m1HiJ-112" vertex="1">
          <mxGeometry width="640" height="370" as="geometry" />
        </mxCell>
        <mxCell id="k_z0wYIaIVALtALubZ5t-37" value="" style="group" vertex="1" connectable="0" parent="KMgSqW_ez-yug-4m1HiJ-112">
          <mxGeometry x="45" y="20" width="585" height="290" as="geometry" />
        </mxCell>
        <mxCell id="KMgSqW_ez-yug-4m1HiJ-69" value="Game Screen" style="text;html=1;align=center;verticalAlign=middle;resizable=0;points=[];autosize=1;" parent="k_z0wYIaIVALtALubZ5t-37" vertex="1">
          <mxGeometry x="230" width="90" height="20" as="geometry" />
        </mxCell>
        <mxCell id="KMgSqW_ez-yug-4m1HiJ-109" value="Chat" style="rounded=0;whiteSpace=wrap;html=1;" parent="k_z0wYIaIVALtALubZ5t-37" vertex="1">
          <mxGeometry x="460" y="40" width="120" height="250" as="geometry" />
        </mxCell>
        <mxCell id="KMgSqW_ez-yug-4m1HiJ-110" value="" style="rounded=0;whiteSpace=wrap;html=1;fillColor=#B3B3B3;" parent="k_z0wYIaIVALtALubZ5t-37" vertex="1">
          <mxGeometry x="460" y="270" width="115" height="20" as="geometry" />
        </mxCell>
        <mxCell id="KMgSqW_ez-yug-4m1HiJ-147" value="Leave" style="rounded=1;whiteSpace=wrap;html=1;fillColor=#66FFFF;" parent="k_z0wYIaIVALtALubZ5t-37" vertex="1">
          <mxGeometry x="460" y="5" width="125" height="30" as="geometry" />
        </mxCell>
        <mxCell id="k_z0wYIaIVALtALubZ5t-36" value="" style="group" vertex="1" connectable="0" parent="k_z0wYIaIVALtALubZ5t-37">
          <mxGeometry y="10" width="435" height="280" as="geometry" />
        </mxCell>
        <mxCell id="KMgSqW_ez-yug-4m1HiJ-107" value="Paint Area" style="rounded=0;whiteSpace=wrap;html=1;" parent="k_z0wYIaIVALtALubZ5t-36" vertex="1">
          <mxGeometry x="160" y="30" width="275" height="250" as="geometry" />
        </mxCell>
        <mxCell id="k_z0wYIaIVALtALubZ5t-35" value="" style="group" vertex="1" connectable="0" parent="k_z0wYIaIVALtALubZ5t-36">
          <mxGeometry width="145" height="240" as="geometry" />
        </mxCell>
        <mxCell id="KMgSqW_ez-yug-4m1HiJ-108" value="Colorspallete" style="rounded=0;whiteSpace=wrap;html=1;fillColor=#FFFF00;" parent="k_z0wYIaIVALtALubZ5t-35" vertex="1">
          <mxGeometry x="13" y="120" width="120" height="60" as="geometry" />
        </mxCell>
        <mxCell id="KMgSqW_ez-yug-4m1HiJ-111" value="Pinsel grÃ¶sse" style="rounded=0;whiteSpace=wrap;html=1;fillColor=#FFFF00;" parent="k_z0wYIaIVALtALubZ5t-35" vertex="1">
          <mxGeometry x="12.5" y="180" width="120" height="60" as="geometry" />
        </mxCell>
        <mxCell id="k_z0wYIaIVALtALubZ5t-34" value="" style="group" vertex="1" connectable="0" parent="k_z0wYIaIVALtALubZ5t-35">
          <mxGeometry width="145" height="90" as="geometry" />
        </mxCell>
        <mxCell id="KMgSqW_ez-yug-4m1HiJ-101" value="" style="rounded=0;whiteSpace=wrap;html=1;" parent="k_z0wYIaIVALtALubZ5t-34" vertex="1">
          <mxGeometry width="145" height="90" as="geometry" />
        </mxCell>
        <mxCell id="KMgSqW_ez-yug-4m1HiJ-102" value="Player" style="text;html=1;align=center;verticalAlign=middle;resizable=0;points=[];autosize=1;" parent="k_z0wYIaIVALtALubZ5t-34" vertex="1">
          <mxGeometry x="5" y="20" width="50" height="20" as="geometry" />
        </mxCell>
        <mxCell id="KMgSqW_ez-yug-4m1HiJ-103" value="Score" style="text;html=1;align=center;verticalAlign=middle;resizable=0;points=[];autosize=1;" parent="k_z0wYIaIVALtALubZ5t-34" vertex="1">
          <mxGeometry x="75" y="20" width="50" height="20" as="geometry" />
        </mxCell>
        <mxCell id="KMgSqW_ez-yug-4m1HiJ-106" value="Leaderboard" style="text;html=1;align=center;verticalAlign=middle;resizable=0;points=[];autosize=1;" parent="k_z0wYIaIVALtALubZ5t-34" vertex="1">
          <mxGeometry x="24" width="80" height="20" as="geometry" />
        </mxCell>
        <mxCell id="KMgSqW_ez-yug-4m1HiJ-143" value="Back to Profil" style="rounded=1;whiteSpace=wrap;html=1;fillColor=#66FFFF;" parent="1" vertex="1">
          <mxGeometry x="350" y="2110" width="170" height="30" as="geometry" />
        </mxCell>
        <mxCell id="k_z0wYIaIVALtALubZ5t-3" value="" style="group" vertex="1" connectable="0" parent="1">
          <mxGeometry x="140" y="930" width="640" height="370" as="geometry" />
        </mxCell>
        <mxCell id="KMgSqW_ez-yug-4m1HiJ-19" value="" style="rounded=0;whiteSpace=wrap;html=1;fillColor=#CCCCFF;" parent="k_z0wYIaIVALtALubZ5t-3" vertex="1">
          <mxGeometry width="640" height="370" as="geometry" />
        </mxCell>
        <mxCell id="KMgSqW_ez-yug-4m1HiJ-20" value="" style="rounded=0;whiteSpace=wrap;html=1;" parent="k_z0wYIaIVALtALubZ5t-3" vertex="1">
          <mxGeometry x="79" y="70" width="160" height="260" as="geometry" />
        </mxCell>
        <mxCell id="KMgSqW_ez-yug-4m1HiJ-21" value="Lobby Screen" style="text;html=1;align=center;verticalAlign=middle;resizable=0;points=[];autosize=1;" parent="k_z0wYIaIVALtALubZ5t-3" vertex="1">
          <mxGeometry x="255" y="30" width="90" height="20" as="geometry" />
        </mxCell>
        <mxCell id="KMgSqW_ez-yug-4m1HiJ-26" value="Create new Lobby" style="rounded=1;whiteSpace=wrap;html=1;fillColor=#66FFFF;" parent="k_z0wYIaIVALtALubZ5t-3" vertex="1">
          <mxGeometry x="80" y="330" width="160" height="30" as="geometry" />
        </mxCell>
        <mxCell id="KMgSqW_ez-yug-4m1HiJ-27" value="View Profil" style="rounded=1;whiteSpace=wrap;html=1;fillColor=#66FFFF;" parent="k_z0wYIaIVALtALubZ5t-3" vertex="1">
          <mxGeometry x="412.5" y="155" width="75" height="30" as="geometry" />
        </mxCell>
        <mxCell id="KMgSqW_ez-yug-4m1HiJ-53" value="" style="rounded=0;whiteSpace=wrap;html=1;" parent="k_z0wYIaIVALtALubZ5t-3" vertex="1">
          <mxGeometry x="79" y="110" width="160" height="70" as="geometry" />
        </mxCell>
        <mxCell id="KMgSqW_ez-yug-4m1HiJ-54" value="Lobby 1" style="text;html=1;align=center;verticalAlign=middle;resizable=0;points=[];autosize=1;" parent="k_z0wYIaIVALtALubZ5t-3" vertex="1">
          <mxGeometry x="83" y="115" width="60" height="20" as="geometry" />
        </mxCell>
        <mxCell id="KMgSqW_ez-yug-4m1HiJ-58" value="Join" style="rounded=1;whiteSpace=wrap;html=1;fillColor=#66FFFF;" parent="k_z0wYIaIVALtALubZ5t-3" vertex="1">
          <mxGeometry x="100" y="155" width="110" height="20" as="geometry" />
        </mxCell>
        <mxCell id="KMgSqW_ez-yug-4m1HiJ-59" value="Lobby owner" style="text;html=1;align=center;verticalAlign=middle;resizable=0;points=[];autosize=1;" parent="k_z0wYIaIVALtALubZ5t-3" vertex="1">
          <mxGeometry x="84" y="135" width="80" height="20" as="geometry" />
        </mxCell>
        <mxCell id="KMgSqW_ez-yug-4m1HiJ-60" value="8/10" style="text;html=1;align=center;verticalAlign=middle;resizable=0;points=[];autosize=1;" parent="k_z0wYIaIVALtALubZ5t-3" vertex="1">
          <mxGeometry x="180" y="115" width="40" height="20" as="geometry" />
        </mxCell>
        <mxCell id="KMgSqW_ez-yug-4m1HiJ-61" value="" style="whiteSpace=wrap;html=1;shape=mxgraph.basic.rectCallout;dx=30;dy=15;boundedLbl=1;fillColor=#25B825;" parent="k_z0wYIaIVALtALubZ5t-3" vertex="1">
          <mxGeometry x="210" y="55" width="100" height="75" as="geometry" />
        </mxCell>
        <mxCell id="KMgSqW_ez-yug-4m1HiJ-62" value="Lobby 1" style="text;html=1;align=center;verticalAlign=middle;resizable=0;points=[];autosize=1;" parent="k_z0wYIaIVALtALubZ5t-3" vertex="1">
          <mxGeometry x="210" y="55" width="60" height="20" as="geometry" />
        </mxCell>
        <mxCell id="KMgSqW_ez-yug-4m1HiJ-63" value="Lobby Information" style="text;html=1;align=center;verticalAlign=middle;resizable=0;points=[];autosize=1;" parent="k_z0wYIaIVALtALubZ5t-3" vertex="1">
          <mxGeometry x="205" y="75" width="110" height="20" as="geometry" />
        </mxCell>
        <mxCell id="KMgSqW_ez-yug-4m1HiJ-64" value="" style="ellipse;whiteSpace=wrap;html=1;aspect=fixed;fillColor=#B3B3B3;" parent="k_z0wYIaIVALtALubZ5t-3" vertex="1">
          <mxGeometry x="412.5" y="70" width="80" height="80" as="geometry" />
        </mxCell>
        <mxCell id="KMgSqW_ez-yug-4m1HiJ-65" value="" style="rounded=0;whiteSpace=wrap;html=1;" parent="k_z0wYIaIVALtALubZ5t-3" vertex="1">
          <mxGeometry x="370" y="210" width="165" height="120" as="geometry" />
        </mxCell>
        <mxCell id="KMgSqW_ez-yug-4m1HiJ-66" value="Friend 1&amp;nbsp; &amp;nbsp; Playerstatus&amp;nbsp;" style="rounded=0;whiteSpace=wrap;html=1;" parent="k_z0wYIaIVALtALubZ5t-3" vertex="1">
          <mxGeometry x="370" y="231" width="165" height="30" as="geometry" />
        </mxCell>
        <mxCell id="KMgSqW_ez-yug-4m1HiJ-67" value="Friend 2&amp;nbsp; &amp;nbsp; Playerstatus&amp;nbsp;" style="rounded=0;whiteSpace=wrap;html=1;" parent="k_z0wYIaIVALtALubZ5t-3" vertex="1">
          <mxGeometry x="370" y="261" width="165" height="30" as="geometry" />
        </mxCell>
        <mxCell id="KMgSqW_ez-yug-4m1HiJ-142" value="Logout" style="rounded=1;whiteSpace=wrap;html=1;fillColor=#66FFFF;" parent="k_z0wYIaIVALtALubZ5t-3" vertex="1">
          <mxGeometry x="510" y="155" width="90" height="30" as="geometry" />
        </mxCell>
        <mxCell id="k_z0wYIaIVALtALubZ5t-4" value="Lobbylist" style="text;html=1;align=center;verticalAlign=middle;resizable=0;points=[];autosize=1;" vertex="1" parent="k_z0wYIaIVALtALubZ5t-3">
          <mxGeometry x="99" y="82.5" width="60" height="20" as="geometry" />
        </mxCell>
        <mxCell id="k_z0wYIaIVALtALubZ5t-10" value="" style="group" vertex="1" connectable="0" parent="1">
          <mxGeometry x="120" y="2970" width="640" height="370" as="geometry" />
        </mxCell>
        <mxCell id="KMgSqW_ez-yug-4m1HiJ-113" value="" style="rounded=0;whiteSpace=wrap;html=1;fillColor=#CCCCFF;" parent="k_z0wYIaIVALtALubZ5t-10" vertex="1">
          <mxGeometry width="640" height="370" as="geometry" />
        </mxCell>
        <mxCell id="KMgSqW_ez-yug-4m1HiJ-122" value="Pre game Screen" style="text;html=1;align=center;verticalAlign=middle;resizable=0;points=[];autosize=1;" parent="k_z0wYIaIVALtALubZ5t-10" vertex="1">
          <mxGeometry x="260" y="20" width="110" height="20" as="geometry" />
        </mxCell>
        <mxCell id="k_z0wYIaIVALtALubZ5t-9" value="" style="group" vertex="1" connectable="0" parent="k_z0wYIaIVALtALubZ5t-10">
          <mxGeometry x="245" y="60" width="365" height="283" as="geometry" />
        </mxCell>
        <mxCell id="KMgSqW_ez-yug-4m1HiJ-118" value="Start" style="rounded=1;whiteSpace=wrap;html=1;fillColor=#66FFFF;" parent="k_z0wYIaIVALtALubZ5t-9" vertex="1">
          <mxGeometry x="1" y="253" width="160" height="30" as="geometry" />
        </mxCell>
        <mxCell id="KMgSqW_ez-yug-4m1HiJ-140" value="Lobby information" style="rounded=0;whiteSpace=wrap;html=1;" parent="k_z0wYIaIVALtALubZ5t-9" vertex="1">
          <mxGeometry x="205" width="160" height="240" as="geometry" />
        </mxCell>
        <mxCell id="KMgSqW_ez-yug-4m1HiJ-146" value="Back to Lobby&lt;span style=&quot;color: rgba(0 , 0 , 0 , 0) ; font-family: monospace ; font-size: 0px&quot;&gt;%3CmxGraphModel%3E%3Croot%3E%3CmxCell%20id%3D%220%22%2F%3E%3CmxCell%20id%3D%221%22%20parent%3D%220%22%2F%3E%3CmxCell%20id%3D%222%22%20value%3D%22Add%20Friends%22%20style%3D%22rounded%3D1%3BwhiteSpace%3Dwrap%3Bhtml%3D1%3BfillColor%3D%2366FFFF%3B%22%20vertex%3D%221%22%20parent%3D%221%22%3E%3CmxGeometry%20x%3D%22630%22%20y%3D%221575%22%20width%3D%2290%22%20height%3D%2230%22%20as%3D%22geometry%22%2F%3E%3C%2FmxCell%3E%3C%2Froot%3E%3C%2FmxGraphModel%3E&lt;/span&gt;" style="rounded=1;whiteSpace=wrap;html=1;fillColor=#66FFFF;" parent="k_z0wYIaIVALtALubZ5t-9" vertex="1">
          <mxGeometry x="230" y="253" width="125" height="30" as="geometry" />
        </mxCell>
        <mxCell id="k_z0wYIaIVALtALubZ5t-8" value="" style="group" vertex="1" connectable="0" parent="k_z0wYIaIVALtALubZ5t-9">
          <mxGeometry width="165" height="240" as="geometry" />
        </mxCell>
        <mxCell id="KMgSqW_ez-yug-4m1HiJ-114" value="" style="rounded=0;whiteSpace=wrap;html=1;" parent="k_z0wYIaIVALtALubZ5t-8" vertex="1">
          <mxGeometry x="1" width="160" height="240" as="geometry" />
        </mxCell>
        <mxCell id="KMgSqW_ez-yug-4m1HiJ-129" value="" style="group" parent="k_z0wYIaIVALtALubZ5t-8" vertex="1" connectable="0">
          <mxGeometry y="20" width="160" height="30" as="geometry" />
        </mxCell>
        <mxCell id="KMgSqW_ez-yug-4m1HiJ-125" value="" style="rounded=0;whiteSpace=wrap;html=1;" parent="KMgSqW_ez-yug-4m1HiJ-129" vertex="1">
          <mxGeometry width="160" height="30" as="geometry" />
        </mxCell>
        <mxCell id="KMgSqW_ez-yug-4m1HiJ-126" value="Player 1" style="text;html=1;align=center;verticalAlign=middle;resizable=0;points=[];autosize=1;" parent="KMgSqW_ez-yug-4m1HiJ-129" vertex="1">
          <mxGeometry x="4" y="5" width="60" height="20" as="geometry" />
        </mxCell>
        <mxCell id="KMgSqW_ez-yug-4m1HiJ-128" value="" style="verticalLabelPosition=bottom;verticalAlign=top;html=1;shape=mxgraph.basic.x;fillColor=#FF3333;" parent="KMgSqW_ez-yug-4m1HiJ-129" vertex="1">
          <mxGeometry x="130" y="5" width="20" height="20" as="geometry" />
        </mxCell>
        <mxCell id="KMgSqW_ez-yug-4m1HiJ-130" value="" style="group" parent="k_z0wYIaIVALtALubZ5t-8" vertex="1" connectable="0">
          <mxGeometry x="5" y="50" width="160" height="30" as="geometry" />
        </mxCell>
        <mxCell id="KMgSqW_ez-yug-4m1HiJ-131" value="" style="rounded=0;whiteSpace=wrap;html=1;" parent="KMgSqW_ez-yug-4m1HiJ-130" vertex="1">
          <mxGeometry width="160" height="30" as="geometry" />
        </mxCell>
        <mxCell id="KMgSqW_ez-yug-4m1HiJ-132" value="Player 2" style="text;html=1;align=center;verticalAlign=middle;resizable=0;points=[];autosize=1;" parent="KMgSqW_ez-yug-4m1HiJ-130" vertex="1">
          <mxGeometry x="4" y="5" width="60" height="20" as="geometry" />
        </mxCell>
        <mxCell id="KMgSqW_ez-yug-4m1HiJ-134" value="" style="verticalLabelPosition=bottom;verticalAlign=top;html=1;shape=mxgraph.basic.x;fillColor=#FF3333;" parent="KMgSqW_ez-yug-4m1HiJ-130" vertex="1">
          <mxGeometry x="130" y="5" width="20" height="20" as="geometry" />
        </mxCell>
        <mxCell id="k_z0wYIaIVALtALubZ5t-12" value="" style="group" vertex="1" connectable="0" parent="1">
          <mxGeometry x="120" y="110" width="640" height="370" as="geometry" />
        </mxCell>
        <mxCell id="KMgSqW_ez-yug-4m1HiJ-1" value="" style="rounded=0;whiteSpace=wrap;html=1;fillColor=#CCCCFF;" parent="k_z0wYIaIVALtALubZ5t-12" vertex="1">
          <mxGeometry width="640" height="370" as="geometry" />
        </mxCell>
        <mxCell id="KMgSqW_ez-yug-4m1HiJ-3" value="Login Screen Title" style="text;html=1;align=center;verticalAlign=middle;resizable=0;points=[];autosize=1;" parent="k_z0wYIaIVALtALubZ5t-12" vertex="1">
          <mxGeometry x="245" y="30" width="110" height="20" as="geometry" />
        </mxCell>
        <mxCell id="KMgSqW_ez-yug-4m1HiJ-9" value="Login" style="rounded=1;whiteSpace=wrap;html=1;fillColor=#66FFFF;" parent="k_z0wYIaIVALtALubZ5t-12" vertex="1">
          <mxGeometry x="245" y="210" width="75" height="30" as="geometry" />
        </mxCell>
        <mxCell id="KMgSqW_ez-yug-4m1HiJ-10" value="Register" style="rounded=1;whiteSpace=wrap;html=1;fillColor=#66FFFF;" parent="k_z0wYIaIVALtALubZ5t-12" vertex="1">
          <mxGeometry x="325" y="210" width="75" height="30" as="geometry" />
        </mxCell>
        <mxCell id="k_z0wYIaIVALtALubZ5t-11" value="" style="group" vertex="1" connectable="0" parent="k_z0wYIaIVALtALubZ5t-12">
          <mxGeometry x="239" y="90" width="161" height="110" as="geometry" />
        </mxCell>
        <mxCell id="KMgSqW_ez-yug-4m1HiJ-2" value="" style="rounded=0;whiteSpace=wrap;html=1;" parent="k_z0wYIaIVALtALubZ5t-11" vertex="1">
          <mxGeometry x="1" width="160" height="110" as="geometry" />
        </mxCell>
        <mxCell id="KMgSqW_ez-yug-4m1HiJ-4" value="Username" style="text;html=1;align=center;verticalAlign=middle;resizable=0;points=[];autosize=1;" parent="k_z0wYIaIVALtALubZ5t-11" vertex="1">
          <mxGeometry y="10" width="70" height="20" as="geometry" />
        </mxCell>
        <mxCell id="KMgSqW_ez-yug-4m1HiJ-6" value="Passwort" style="text;html=1;align=center;verticalAlign=middle;resizable=0;points=[];autosize=1;" parent="k_z0wYIaIVALtALubZ5t-11" vertex="1">
          <mxGeometry x="6" y="50" width="60" height="20" as="geometry" />
        </mxCell>
        <mxCell id="KMgSqW_ez-yug-4m1HiJ-7" value="" style="rounded=0;whiteSpace=wrap;html=1;fillColor=#B3B3B3;" parent="k_z0wYIaIVALtALubZ5t-11" vertex="1">
          <mxGeometry x="6" y="30" width="100" height="20" as="geometry" />
        </mxCell>
        <mxCell id="KMgSqW_ez-yug-4m1HiJ-8" value="" style="rounded=0;whiteSpace=wrap;html=1;fillColor=#B3B3B3;" parent="k_z0wYIaIVALtALubZ5t-11" vertex="1">
          <mxGeometry x="6" y="70" width="100" height="20" as="geometry" />
        </mxCell>
        <mxCell id="k_z0wYIaIVALtALubZ5t-13" value="" style="group" vertex="1" connectable="0" parent="1">
          <mxGeometry x="120" y="530" width="640" height="370" as="geometry" />
        </mxCell>
        <mxCell id="KMgSqW_ez-yug-4m1HiJ-11" value="" style="rounded=0;whiteSpace=wrap;html=1;fillColor=#CCCCFF;" parent="k_z0wYIaIVALtALubZ5t-13" vertex="1">
          <mxGeometry width="640" height="370" as="geometry" />
        </mxCell>
        <mxCell id="KMgSqW_ez-yug-4m1HiJ-12" value="" style="rounded=0;whiteSpace=wrap;html=1;" parent="k_z0wYIaIVALtALubZ5t-13" vertex="1">
          <mxGeometry x="240" y="90" width="160" height="110" as="geometry" />
        </mxCell>
        <mxCell id="KMgSqW_ez-yug-4m1HiJ-13" value="Register Screen Title" style="text;html=1;align=center;verticalAlign=middle;resizable=0;points=[];autosize=1;" parent="k_z0wYIaIVALtALubZ5t-13" vertex="1">
          <mxGeometry x="235" y="30" width="130" height="20" as="geometry" />
        </mxCell>
        <mxCell id="KMgSqW_ez-yug-4m1HiJ-14" value="Username" style="text;html=1;align=center;verticalAlign=middle;resizable=0;points=[];autosize=1;" parent="k_z0wYIaIVALtALubZ5t-13" vertex="1">
          <mxGeometry x="239" y="100" width="70" height="20" as="geometry" />
        </mxCell>
        <mxCell id="KMgSqW_ez-yug-4m1HiJ-15" value="Passwort" style="text;html=1;align=center;verticalAlign=middle;resizable=0;points=[];autosize=1;" parent="k_z0wYIaIVALtALubZ5t-13" vertex="1">
          <mxGeometry x="245" y="140" width="60" height="20" as="geometry" />
        </mxCell>
        <mxCell id="KMgSqW_ez-yug-4m1HiJ-16" value="" style="rounded=0;whiteSpace=wrap;html=1;fillColor=#B3B3B3;" parent="k_z0wYIaIVALtALubZ5t-13" vertex="1">
          <mxGeometry x="245" y="120" width="100" height="20" as="geometry" />
        </mxCell>
        <mxCell id="KMgSqW_ez-yug-4m1HiJ-17" value="" style="rounded=0;whiteSpace=wrap;html=1;fillColor=#B3B3B3;" parent="k_z0wYIaIVALtALubZ5t-13" vertex="1">
          <mxGeometry x="245" y="160" width="100" height="20" as="geometry" />
        </mxCell>
        <mxCell id="KMgSqW_ez-yug-4m1HiJ-18" value="Register" style="rounded=1;whiteSpace=wrap;html=1;fillColor=#66FFFF;" parent="k_z0wYIaIVALtALubZ5t-13" vertex="1">
          <mxGeometry x="240" y="210" width="160" height="30" as="geometry" />
        </mxCell>
        <mxCell id="k_z0wYIaIVALtALubZ5t-19" value="" style="group" vertex="1" connectable="0" parent="1">
          <mxGeometry x="120" y="1384" width="640" height="370" as="geometry" />
        </mxCell>
        <mxCell id="KMgSqW_ez-yug-4m1HiJ-28" value="" style="rounded=0;whiteSpace=wrap;html=1;fillColor=#CCCCFF;" parent="k_z0wYIaIVALtALubZ5t-19" vertex="1">
          <mxGeometry width="640" height="370" as="geometry" />
        </mxCell>
        <mxCell id="KMgSqW_ez-yug-4m1HiJ-30" value="Profil Screen" style="text;html=1;align=center;verticalAlign=middle;resizable=0;points=[];autosize=1;" parent="k_z0wYIaIVALtALubZ5t-19" vertex="1">
          <mxGeometry x="260" y="30" width="80" height="20" as="geometry" />
        </mxCell>
        <mxCell id="k_z0wYIaIVALtALubZ5t-17" value="" style="group" vertex="1" connectable="0" parent="k_z0wYIaIVALtALubZ5t-19">
          <mxGeometry x="43" y="70" width="582" height="286" as="geometry" />
        </mxCell>
        <mxCell id="KMgSqW_ez-yug-4m1HiJ-76" value="" style="group" parent="k_z0wYIaIVALtALubZ5t-17" vertex="1" connectable="0">
          <mxGeometry x="167" y="166" width="265" height="120" as="geometry" />
        </mxCell>
        <mxCell id="k_z0wYIaIVALtALubZ5t-16" value="" style="group" vertex="1" connectable="0" parent="KMgSqW_ez-yug-4m1HiJ-76">
          <mxGeometry width="265" height="120" as="geometry" />
        </mxCell>
        <mxCell id="KMgSqW_ez-yug-4m1HiJ-73" value="" style="rounded=0;whiteSpace=wrap;html=1;" parent="k_z0wYIaIVALtALubZ5t-16" vertex="1">
          <mxGeometry width="265" height="120" as="geometry" />
        </mxCell>
        <mxCell id="KMgSqW_ez-yug-4m1HiJ-74" value="Friend 1&amp;nbsp; &amp;nbsp; Playerstatus&amp;nbsp;" style="rounded=0;whiteSpace=wrap;html=1;" parent="k_z0wYIaIVALtALubZ5t-16" vertex="1">
          <mxGeometry y="21" width="265" height="30" as="geometry" />
        </mxCell>
        <mxCell id="KMgSqW_ez-yug-4m1HiJ-75" value="Friend 2&amp;nbsp; &amp;nbsp; Playerstatus&amp;nbsp;" style="rounded=0;whiteSpace=wrap;html=1;" parent="k_z0wYIaIVALtALubZ5t-16" vertex="1">
          <mxGeometry y="51" width="265" height="30" as="geometry" />
        </mxCell>
        <mxCell id="k_z0wYIaIVALtALubZ5t-14" value="" style="group" vertex="1" connectable="0" parent="k_z0wYIaIVALtALubZ5t-17">
          <mxGeometry x="97" width="360" height="96" as="geometry" />
        </mxCell>
        <mxCell id="KMgSqW_ez-yug-4m1HiJ-29" value="" style="rounded=0;whiteSpace=wrap;html=1;" parent="k_z0wYIaIVALtALubZ5t-14" vertex="1">
          <mxGeometry width="360" height="96" as="geometry" />
        </mxCell>
        <mxCell id="KMgSqW_ez-yug-4m1HiJ-31" value="Username" style="text;html=1;align=center;verticalAlign=middle;resizable=0;points=[];autosize=1;" parent="k_z0wYIaIVALtALubZ5t-14" vertex="1">
          <mxGeometry x="50" y="10" width="70" height="20" as="geometry" />
        </mxCell>
        <mxCell id="KMgSqW_ez-yug-4m1HiJ-32" value="Games Played" style="text;html=1;align=center;verticalAlign=middle;resizable=0;points=[];autosize=1;" parent="k_z0wYIaIVALtALubZ5t-14" vertex="1">
          <mxGeometry x="170" y="10" width="90" height="20" as="geometry" />
        </mxCell>
        <mxCell id="KMgSqW_ez-yug-4m1HiJ-38" value="Name" style="text;html=1;align=center;verticalAlign=middle;resizable=0;points=[];autosize=1;" parent="k_z0wYIaIVALtALubZ5t-14" vertex="1">
          <mxGeometry x="120" y="10" width="50" height="20" as="geometry" />
        </mxCell>
        <mxCell id="KMgSqW_ez-yug-4m1HiJ-39" value="Wins" style="text;html=1;align=center;verticalAlign=middle;resizable=0;points=[];autosize=1;" parent="k_z0wYIaIVALtALubZ5t-14" vertex="1">
          <mxGeometry x="290" y="10" width="40" height="20" as="geometry" />
        </mxCell>
        <mxCell id="k_z0wYIaIVALtALubZ5t-15" value="" style="group" vertex="1" connectable="0" parent="k_z0wYIaIVALtALubZ5t-17">
          <mxGeometry y="8" width="582" height="173" as="geometry" />
        </mxCell>
        <mxCell id="KMgSqW_ez-yug-4m1HiJ-36" value="Edit Profil" style="rounded=1;whiteSpace=wrap;html=1;fillColor=#66FFFF;" parent="k_z0wYIaIVALtALubZ5t-15" vertex="1">
          <mxGeometry y="108" width="100" height="30" as="geometry" />
        </mxCell>
        <mxCell id="KMgSqW_ez-yug-4m1HiJ-40" value="" style="ellipse;whiteSpace=wrap;html=1;aspect=fixed;fillColor=#B3B3B3;" parent="k_z0wYIaIVALtALubZ5t-15" vertex="1">
          <mxGeometry x="7" width="80" height="80" as="geometry" />
        </mxCell>
        <mxCell id="KMgSqW_ez-yug-4m1HiJ-41" value="Add Friends" style="rounded=1;whiteSpace=wrap;html=1;fillColor=#66FFFF;" parent="k_z0wYIaIVALtALubZ5t-15" vertex="1">
          <mxGeometry x="467" y="113" width="90" height="30" as="geometry" />
        </mxCell>
        <mxCell id="KMgSqW_ez-yug-4m1HiJ-42" value="Friend Request" style="rounded=1;whiteSpace=wrap;html=1;fillColor=#66FFFF;" parent="k_z0wYIaIVALtALubZ5t-15" vertex="1">
          <mxGeometry x="467" y="2" width="115" height="30" as="geometry" />
        </mxCell>
        <mxCell id="KMgSqW_ez-yug-4m1HiJ-72" value="Search Bar" style="rounded=0;whiteSpace=wrap;html=1;fillColor=#B3B3B3;" parent="k_z0wYIaIVALtALubZ5t-15" vertex="1">
          <mxGeometry x="177" y="118" width="235" height="20" as="geometry" />
        </mxCell>
        <mxCell id="KMgSqW_ez-yug-4m1HiJ-141" value="Back to Lobby&lt;span style=&quot;color: rgba(0 , 0 , 0 , 0) ; font-family: monospace ; font-size: 0px&quot;&gt;%3CmxGraphModel%3E%3Croot%3E%3CmxCell%20id%3D%220%22%2F%3E%3CmxCell%20id%3D%221%22%20parent%3D%220%22%2F%3E%3CmxCell%20id%3D%222%22%20value%3D%22Add%20Friends%22%20style%3D%22rounded%3D1%3BwhiteSpace%3Dwrap%3Bhtml%3D1%3BfillColor%3D%2366FFFF%3B%22%20vertex%3D%221%22%20parent%3D%221%22%3E%3CmxGeometry%20x%3D%22630%22%20y%3D%221575%22%20width%3D%2290%22%20height%3D%2230%22%20as%3D%22geometry%22%2F%3E%3C%2FmxCell%3E%3C%2Froot%3E%3C%2FmxGraphModel%3E&lt;/span&gt;" style="rounded=1;whiteSpace=wrap;html=1;fillColor=#66FFFF;" parent="k_z0wYIaIVALtALubZ5t-15" vertex="1">
          <mxGeometry y="143" width="100" height="30" as="geometry" />
        </mxCell>
        <mxCell id="k_z0wYIaIVALtALubZ5t-31" value="" style="group" vertex="1" connectable="0" parent="1">
          <mxGeometry x="120" y="2190" width="640" height="370" as="geometry" />
        </mxCell>
        <mxCell id="KMgSqW_ez-yug-4m1HiJ-77" value="" style="rounded=0;whiteSpace=wrap;html=1;fillColor=#CCCCFF;" parent="k_z0wYIaIVALtALubZ5t-31" vertex="1">
          <mxGeometry width="640" height="370" as="geometry" />
        </mxCell>
        <mxCell id="k_z0wYIaIVALtALubZ5t-30" value="" style="group" vertex="1" connectable="0" parent="k_z0wYIaIVALtALubZ5t-31">
          <mxGeometry x="43" y="30" width="437" height="230" as="geometry" />
        </mxCell>
        <mxCell id="KMgSqW_ez-yug-4m1HiJ-79" value="Profil Screen of another User" style="text;html=1;align=center;verticalAlign=middle;resizable=0;points=[];autosize=1;" parent="k_z0wYIaIVALtALubZ5t-30" vertex="1">
          <mxGeometry x="172" width="170" height="20" as="geometry" />
        </mxCell>
        <mxCell id="KMgSqW_ez-yug-4m1HiJ-82" value="Add as Friend" style="rounded=1;whiteSpace=wrap;html=1;fillColor=#66FFFF;" parent="k_z0wYIaIVALtALubZ5t-30" vertex="1">
          <mxGeometry y="156" width="100" height="30" as="geometry" />
        </mxCell>
        <mxCell id="KMgSqW_ez-yug-4m1HiJ-85" value="" style="ellipse;whiteSpace=wrap;html=1;aspect=fixed;fillColor=#B3B3B3;" parent="k_z0wYIaIVALtALubZ5t-30" vertex="1">
          <mxGeometry x="7" y="48" width="80" height="80" as="geometry" />
        </mxCell>
        <mxCell id="KMgSqW_ez-yug-4m1HiJ-144" value="Back to Lobby&lt;span style=&quot;color: rgba(0 , 0 , 0 , 0) ; font-family: monospace ; font-size: 0px&quot;&gt;%3CmxGraphModel%3E%3Croot%3E%3CmxCell%20id%3D%220%22%2F%3E%3CmxCell%20id%3D%221%22%20parent%3D%220%22%2F%3E%3CmxCell%20id%3D%222%22%20value%3D%22Add%20Friends%22%20style%3D%22rounded%3D1%3BwhiteSpace%3Dwrap%3Bhtml%3D1%3BfillColor%3D%2366FFFF%3B%22%20vertex%3D%221%22%20parent%3D%221%22%3E%3CmxGeometry%20x%3D%22630%22%20y%3D%221575%22%20width%3D%2290%22%20height%3D%2230%22%20as%3D%22geometry%22%2F%3E%3C%2FmxCell%3E%3C%2Froot%3E%3C%2FmxGraphModel%3E&lt;/span&gt;" style="rounded=1;whiteSpace=wrap;html=1;fillColor=#66FFFF;" parent="k_z0wYIaIVALtALubZ5t-30" vertex="1">
          <mxGeometry y="200" width="102" height="30" as="geometry" />
        </mxCell>
        <mxCell id="k_z0wYIaIVALtALubZ5t-29" value="" style="group" vertex="1" connectable="0" parent="k_z0wYIaIVALtALubZ5t-30">
          <mxGeometry x="97" y="40" width="340" height="100" as="geometry" />
        </mxCell>
        <mxCell id="KMgSqW_ez-yug-4m1HiJ-78" value="" style="rounded=0;whiteSpace=wrap;html=1;" parent="k_z0wYIaIVALtALubZ5t-29" vertex="1">
          <mxGeometry width="340" height="100" as="geometry" />
        </mxCell>
        <mxCell id="KMgSqW_ez-yug-4m1HiJ-80" value="Username" style="text;html=1;align=center;verticalAlign=middle;resizable=0;points=[];autosize=1;" parent="k_z0wYIaIVALtALubZ5t-29" vertex="1">
          <mxGeometry x="50" y="10" width="70" height="20" as="geometry" />
        </mxCell>
        <mxCell id="KMgSqW_ez-yug-4m1HiJ-81" value="Games Played" style="text;html=1;align=center;verticalAlign=middle;resizable=0;points=[];autosize=1;" parent="k_z0wYIaIVALtALubZ5t-29" vertex="1">
          <mxGeometry x="170" y="10" width="90" height="20" as="geometry" />
        </mxCell>
        <mxCell id="KMgSqW_ez-yug-4m1HiJ-83" value="Name" style="text;html=1;align=center;verticalAlign=middle;resizable=0;points=[];autosize=1;" parent="k_z0wYIaIVALtALubZ5t-29" vertex="1">
          <mxGeometry x="120" y="10" width="50" height="20" as="geometry" />
        </mxCell>
        <mxCell id="KMgSqW_ez-yug-4m1HiJ-84" value="Wins" style="text;html=1;align=center;verticalAlign=middle;resizable=0;points=[];autosize=1;" parent="k_z0wYIaIVALtALubZ5t-29" vertex="1">
          <mxGeometry x="290" y="10" width="40" height="20" as="geometry" />
        </mxCell>
        <mxCell id="k_z0wYIaIVALtALubZ5t-33" value="" style="group" vertex="1" connectable="0" parent="1">
          <mxGeometry x="120" y="2580" width="640" height="370" as="geometry" />
        </mxCell>
        <mxCell id="KMgSqW_ez-yug-4m1HiJ-87" value="" style="rounded=0;whiteSpace=wrap;html=1;fillColor=#CCCCFF;" parent="k_z0wYIaIVALtALubZ5t-33" vertex="1">
          <mxGeometry width="640" height="370" as="geometry" />
        </mxCell>
        <mxCell id="KMgSqW_ez-yug-4m1HiJ-88" value="Create Lobby Screen" style="text;html=1;align=center;verticalAlign=middle;resizable=0;points=[];autosize=1;" parent="k_z0wYIaIVALtALubZ5t-33" vertex="1">
          <mxGeometry x="255" y="20" width="130" height="20" as="geometry" />
        </mxCell>
        <mxCell id="KMgSqW_ez-yug-4m1HiJ-93" value="Create" style="rounded=1;whiteSpace=wrap;html=1;fillColor=#66FFFF;" parent="k_z0wYIaIVALtALubZ5t-33" vertex="1">
          <mxGeometry x="246" y="313" width="160" height="30" as="geometry" />
        </mxCell>
        <mxCell id="KMgSqW_ez-yug-4m1HiJ-145" value="Back to Lobby&lt;span style=&quot;color: rgba(0 , 0 , 0 , 0) ; font-family: monospace ; font-size: 0px&quot;&gt;%3CmxGraphModel%3E%3Croot%3E%3CmxCell%20id%3D%220%22%2F%3E%3CmxCell%20id%3D%221%22%20parent%3D%220%22%2F%3E%3CmxCell%20id%3D%222%22%20value%3D%22Add%20Friends%22%20style%3D%22rounded%3D1%3BwhiteSpace%3Dwrap%3Bhtml%3D1%3BfillColor%3D%2366FFFF%3B%22%20vertex%3D%221%22%20parent%3D%221%22%3E%3CmxGeometry%20x%3D%22630%22%20y%3D%221575%22%20width%3D%2290%22%20height%3D%2230%22%20as%3D%22geometry%22%2F%3E%3C%2FmxCell%3E%3C%2Froot%3E%3C%2FmxGraphModel%3E&lt;/span&gt;" style="rounded=1;whiteSpace=wrap;html=1;fillColor=#66FFFF;" parent="k_z0wYIaIVALtALubZ5t-33" vertex="1">
          <mxGeometry x="480" y="313" width="110" height="30" as="geometry" />
        </mxCell>
        <mxCell id="k_z0wYIaIVALtALubZ5t-32" value="" style="group" vertex="1" connectable="0" parent="k_z0wYIaIVALtALubZ5t-33">
          <mxGeometry x="245" y="60" width="161" height="240" as="geometry" />
        </mxCell>
        <mxCell id="KMgSqW_ez-yug-4m1HiJ-89" value="" style="rounded=0;whiteSpace=wrap;html=1;" parent="k_z0wYIaIVALtALubZ5t-32" vertex="1">
          <mxGeometry x="1" width="160" height="240" as="geometry" />
        </mxCell>
        <mxCell id="KMgSqW_ez-yug-4m1HiJ-90" value="Lobbyname" style="text;html=1;align=center;verticalAlign=middle;resizable=0;points=[];autosize=1;" parent="k_z0wYIaIVALtALubZ5t-32" vertex="1">
          <mxGeometry y="50" width="80" height="20" as="geometry" />
        </mxCell>
        <mxCell id="KMgSqW_ez-yug-4m1HiJ-91" value="max Players" style="text;html=1;align=center;verticalAlign=middle;resizable=0;points=[];autosize=1;" parent="k_z0wYIaIVALtALubZ5t-32" vertex="1">
          <mxGeometry x="11" y="90" width="80" height="20" as="geometry" />
        </mxCell>
        <mxCell id="KMgSqW_ez-yug-4m1HiJ-92" value="" style="rounded=0;whiteSpace=wrap;html=1;fillColor=#B3B3B3;" parent="k_z0wYIaIVALtALubZ5t-32" vertex="1">
          <mxGeometry x="10" y="70" width="100" height="20" as="geometry" />
        </mxCell>
        <mxCell id="KMgSqW_ez-yug-4m1HiJ-94" value="" style="rounded=0;whiteSpace=wrap;html=1;fillColor=#B3B3B3;" parent="k_z0wYIaIVALtALubZ5t-32" vertex="1">
          <mxGeometry x="11" y="110" width="100" height="20" as="geometry" />
        </mxCell>
        <mxCell id="KMgSqW_ez-yug-4m1HiJ-95" value="Rounds" style="text;html=1;align=center;verticalAlign=middle;resizable=0;points=[];autosize=1;" parent="k_z0wYIaIVALtALubZ5t-32" vertex="1">
          <mxGeometry x="21" y="140" width="60" height="20" as="geometry" />
        </mxCell>
        <mxCell id="KMgSqW_ez-yug-4m1HiJ-96" value="" style="rounded=0;whiteSpace=wrap;html=1;fillColor=#B3B3B3;" parent="k_z0wYIaIVALtALubZ5t-32" vertex="1">
          <mxGeometry x="10" y="160" width="100" height="20" as="geometry" />
        </mxCell>
        <mxCell id="KMgSqW_ez-yug-4m1HiJ-97" value="Gamemode" style="text;html=1;align=center;verticalAlign=middle;resizable=0;points=[];autosize=1;" parent="k_z0wYIaIVALtALubZ5t-32" vertex="1">
          <mxGeometry x="15" y="190" width="80" height="20" as="geometry" />
        </mxCell>
        <mxCell id="KMgSqW_ez-yug-4m1HiJ-98" value="Dropdown" style="rounded=0;whiteSpace=wrap;html=1;fillColor=#B3B3B3;" parent="k_z0wYIaIVALtALubZ5t-32" vertex="1">
          <mxGeometry x="15" y="210" width="100" height="20" as="geometry" />
        </mxCell>
        <mxCell id="KMgSqW_ez-yug-4m1HiJ-99" value="Private or public" style="text;html=1;align=center;verticalAlign=middle;resizable=0;points=[];autosize=1;" parent="k_z0wYIaIVALtALubZ5t-32" vertex="1">
          <mxGeometry x="1" y="10" width="100" height="20" as="geometry" />
        </mxCell>
        <mxCell id="KMgSqW_ez-yug-4m1HiJ-100" value="Slider" style="rounded=0;whiteSpace=wrap;html=1;fillColor=#B3B3B3;" parent="k_z0wYIaIVALtALubZ5t-32" vertex="1">
          <mxGeometry x="11" y="30" width="100" height="20" as="geometry" />
        </mxCell>
      </root>
    </mxGraphModel>
  </diagram>
</mxfile>
